<mxfile host="app.diagrams.net" modified="2020-11-18T03:37:35.650Z" agent="5.0 (X11; Linux x86_64) AppleWebKit/537.36 (KHTML, like Gecko) Chrome/85.0.4183.102 Safari/537.36" etag="GmVXghjewQpfZAjFHBpD" version="13.9.9" type="github">
  <diagram name="Page-1" id="0783ab3e-0a74-02c8-0abd-f7b4e66b4bec">
    <mxGraphModel dx="1211" dy="659" grid="1" gridSize="10" guides="1" tooltips="1" connect="1" arrows="1" fold="1" page="1" pageScale="1" pageWidth="850" pageHeight="1100" background="#ffffff" math="0" shadow="0">
      <root>
        <mxCell id="0" />
        <mxCell id="1" parent="0" />
        <mxCell id="7wB3pbU2mGcXV_ptZqq3-3" style="edgeStyle=orthogonalEdgeStyle;rounded=0;orthogonalLoop=1;jettySize=auto;html=1;" edge="1" parent="1" source="7wB3pbU2mGcXV_ptZqq3-1" target="7wB3pbU2mGcXV_ptZqq3-2">
          <mxGeometry relative="1" as="geometry" />
        </mxCell>
        <mxCell id="7wB3pbU2mGcXV_ptZqq3-1" value="读取延时遥测文件" style="rounded=0;whiteSpace=wrap;html=1;" vertex="1" parent="1">
          <mxGeometry x="330" y="460" width="120" height="60" as="geometry" />
        </mxCell>
        <mxCell id="7wB3pbU2mGcXV_ptZqq3-5" style="edgeStyle=orthogonalEdgeStyle;rounded=0;orthogonalLoop=1;jettySize=auto;html=1;exitX=0.5;exitY=1;exitDx=0;exitDy=0;" edge="1" parent="1" source="7wB3pbU2mGcXV_ptZqq3-2" target="7wB3pbU2mGcXV_ptZqq3-4">
          <mxGeometry relative="1" as="geometry" />
        </mxCell>
        <mxCell id="7wB3pbU2mGcXV_ptZqq3-2" value="解析遥测帧中的时间" style="rounded=0;whiteSpace=wrap;html=1;" vertex="1" parent="1">
          <mxGeometry x="330" y="580" width="120" height="60" as="geometry" />
        </mxCell>
        <mxCell id="7wB3pbU2mGcXV_ptZqq3-7" style="edgeStyle=orthogonalEdgeStyle;rounded=0;orthogonalLoop=1;jettySize=auto;html=1;exitX=0.5;exitY=1;exitDx=0;exitDy=0;" edge="1" parent="1" source="7wB3pbU2mGcXV_ptZqq3-4" target="7wB3pbU2mGcXV_ptZqq3-6">
          <mxGeometry relative="1" as="geometry" />
        </mxCell>
        <mxCell id="7wB3pbU2mGcXV_ptZqq3-4" value="获取遥测帧数据域" style="rounded=0;whiteSpace=wrap;html=1;" vertex="1" parent="1">
          <mxGeometry x="330" y="700" width="120" height="60" as="geometry" />
        </mxCell>
        <mxCell id="7wB3pbU2mGcXV_ptZqq3-9" style="edgeStyle=orthogonalEdgeStyle;rounded=0;orthogonalLoop=1;jettySize=auto;html=1;exitX=0.5;exitY=1;exitDx=0;exitDy=0;" edge="1" parent="1" source="7wB3pbU2mGcXV_ptZqq3-6" target="7wB3pbU2mGcXV_ptZqq3-8">
          <mxGeometry relative="1" as="geometry" />
        </mxCell>
        <mxCell id="7wB3pbU2mGcXV_ptZqq3-6" value="提取遥测数据包" style="rounded=0;whiteSpace=wrap;html=1;" vertex="1" parent="1">
          <mxGeometry x="330" y="810" width="120" height="60" as="geometry" />
        </mxCell>
        <mxCell id="7wB3pbU2mGcXV_ptZqq3-8" value="解析包参数" style="rounded=0;whiteSpace=wrap;html=1;" vertex="1" parent="1">
          <mxGeometry x="330" y="930" width="120" height="50" as="geometry" />
        </mxCell>
        <mxCell id="7wB3pbU2mGcXV_ptZqq3-10" value="" style="strokeWidth=2;html=1;shape=mxgraph.flowchart.annotation_2;align=left;labelPosition=right;pointerEvents=1;direction=south;" vertex="1" parent="1">
          <mxGeometry x="340" y="980" width="100" height="50" as="geometry" />
        </mxCell>
        <mxCell id="7wB3pbU2mGcXV_ptZqq3-11" value="存储为回放文件" style="rounded=0;whiteSpace=wrap;html=1;" vertex="1" parent="1">
          <mxGeometry x="260" y="1030" width="120" height="60" as="geometry" />
        </mxCell>
        <mxCell id="7wB3pbU2mGcXV_ptZqq3-12" value="存储到时序库" style="rounded=0;whiteSpace=wrap;html=1;" vertex="1" parent="1">
          <mxGeometry x="420" y="1030" width="120" height="60" as="geometry" />
        </mxCell>
      </root>
    </mxGraphModel>
  </diagram>
</mxfile>
